<svg xmlns="http://www.w3.org/2000/svg" version="1.1" xmlns:xlink="http://www.w3.org/1999/xlink" xmlns:svgjs="http://svgjs.com/svgjs" width="1440" height="560" preserveAspectRatio="none" viewBox="0 0 1440 560"><g mask="url(&quot;#SvgjsMask1021&quot;)" fill="none"><rect width="1440" height="560" x="0" y="0" fill="#0e2a47"></rect><path d="M-74.91 340.25L-74.91 340.25" stroke="#132e65" stroke-width="1.5"></path><path d="M-74.91 340.25L65.87 373.9" stroke="#132e65" stroke-width="1.5"></path><path d="M-74.91 340.25L-99.87 512.24" stroke="#132e65" stroke-width="1.5"></path><path d="M-74.91 340.25L102.11 553.31" stroke="#132e65" stroke-width="1.5"></path><path d="M-74.91 340.25L-106.08 667" stroke="#132e65" stroke-width="1.5"></path><path d="M-99.87 512.24L-99.87 512.24" stroke="#132e65" stroke-width="1.5"></path><path d="M-99.87 512.24L-106.08 667" stroke="#132e65" stroke-width="1.5"></path><path d="M-99.87 512.24L102.11 553.31" stroke="#132e65" stroke-width="1.5"></path><path d="M-106.08 667L-106.08 667" stroke="#132e65" stroke-width="1.5"></path><path d="M-106.08 667L69.79 679.03" stroke="#132e65" stroke-width="1.5"></path><path d="M65.87 373.9L65.87 373.9" stroke="#132e65" stroke-width="1.5"></path><path d="M65.87 373.9L102.11 553.31" stroke="#132e65" stroke-width="1.5"></path><path d="M65.87 373.9L-99.87 512.24" stroke="#132e65" stroke-width="1.5"></path><path d="M65.87 373.9L248.62 491.87" stroke="#132e65" stroke-width="1.5"></path><path d="M102.11 553.31L102.11 553.31" stroke="#132e65" stroke-width="1.5"></path><path d="M102.11 553.31L69.79 679.03" stroke="#132e65" stroke-width="1.5"></path><path d="M102.11 553.31L193.24 659.28" stroke="#132e65" stroke-width="1.5"></path><path d="M102.11 553.31L248.62 491.87" stroke="#132e65" stroke-width="1.5"></path><path d="M69.79 679.03L69.79 679.03" stroke="#132e65" stroke-width="1.5"></path><path d="M69.79 679.03L193.24 659.28" stroke="#132e65" stroke-width="1.5"></path><path d="M69.79 679.03L-99.87 512.24" stroke="#132e65" stroke-width="1.5"></path><path d="M69.79 679.03L248.62 491.87" stroke="#132e65" stroke-width="1.5"></path><path d="M69.79 679.03L364.22 681.64" stroke="#132e65" stroke-width="1.5"></path><path d="M248.62 491.87L248.62 491.87" stroke="#132e65" stroke-width="1.5"></path><path d="M248.62 491.87L364.16 504.61" stroke="#132e65" stroke-width="1.5"></path><path d="M248.62 491.87L193.24 659.28" stroke="#132e65" stroke-width="1.5"></path><path d="M248.62 491.87L375.21 360.27" stroke="#132e65" stroke-width="1.5"></path><path d="M248.62 491.87L364.22 681.64" stroke="#132e65" stroke-width="1.5"></path><path d="M193.24 659.28L193.24 659.28" stroke="#132e65" stroke-width="1.5"></path><path d="M193.24 659.28L364.22 681.64" stroke="#132e65" stroke-width="1.5"></path><path d="M193.24 659.28L364.16 504.61" stroke="#132e65" stroke-width="1.5"></path><path d="M375.21 360.27L375.21 360.27" stroke="#132e65" stroke-width="1.5"></path><path d="M375.21 360.27L510.85 352.4" stroke="#132e65" stroke-width="1.5"></path><path d="M375.21 360.27L364.16 504.61" stroke="#132e65" stroke-width="1.5"></path><path d="M375.21 360.27L556.21 506.17" stroke="#132e65" stroke-width="1.5"></path><path d="M375.21 360.27L65.87 373.9" stroke="#132e65" stroke-width="1.5"></path><path d="M364.16 504.61L364.16 504.61" stroke="#132e65" stroke-width="1.5"></path><path d="M364.22 681.64L364.22 681.64" stroke="#132e65" stroke-width="1.5"></path><path d="M364.22 681.64L364.16 504.61" stroke="#132e65" stroke-width="1.5"></path><path d="M364.22 681.64L556.41 656.6" stroke="#132e65" stroke-width="1.5"></path><path d="M510.85 352.4L510.85 352.4" stroke="#132e65" stroke-width="1.5"></path><path d="M510.85 352.4L556.21 506.17" stroke="#132e65" stroke-width="1.5"></path><path d="M556.21 506.17L556.21 506.17" stroke="#132e65" stroke-width="1.5"></path><path d="M556.21 506.17L690.4 494.64" stroke="#132e65" stroke-width="1.5"></path><path d="M556.21 506.17L556.41 656.6" stroke="#132e65" stroke-width="1.5"></path><path d="M556.41 656.6L556.41 656.6" stroke="#132e65" stroke-width="1.5"></path><path d="M556.41 656.6L645.32 711.15" stroke="#132e65" stroke-width="1.5"></path><path d="M556.41 656.6L690.4 494.64" stroke="#132e65" stroke-width="1.5"></path><path d="M556.41 656.6L364.16 504.61" stroke="#132e65" stroke-width="1.5"></path><path d="M556.41 656.6L807.02 541.5" stroke="#132e65" stroke-width="1.5"></path><path d="M709.02 387.3L709.02 387.3" stroke="#132e65" stroke-width="1.5"></path><path d="M709.02 387.3L798.4 402.54" stroke="#132e65" stroke-width="1.5"></path><path d="M709.02 387.3L690.4 494.64" stroke="#132e65" stroke-width="1.5"></path><path d="M690.4 494.64L690.4 494.64" stroke="#132e65" stroke-width="1.5"></path><path d="M690.4 494.64L807.02 541.5" stroke="#132e65" stroke-width="1.5"></path><path d="M690.4 494.64L798.4 402.54" stroke="#132e65" stroke-width="1.5"></path><path d="M645.32 711.15L645.32 711.15" stroke="#132e65" stroke-width="1.5"></path><path d="M645.32 711.15L690.4 494.64" stroke="#132e65" stroke-width="1.5"></path><path d="M645.32 711.15L556.21 506.17" stroke="#132e65" stroke-width="1.5"></path><path d="M799.8 215.28L799.8 215.28" stroke="#132e65" stroke-width="1.5"></path><path d="M799.8 215.28L798.4 402.54" stroke="#132e65" stroke-width="1.5"></path><path d="M799.8 215.28L709.02 387.3" stroke="#132e65" stroke-width="1.5"></path><path d="M799.8 215.28L996.14 219.33" stroke="#132e65" stroke-width="1.5"></path><path d="M799.8 215.28L980.11 109.95" stroke="#132e65" stroke-width="1.5"></path><path d="M799.8 215.28L969.7 365.58" stroke="#132e65" stroke-width="1.5"></path><path d="M798.4 402.54L798.4 402.54" stroke="#132e65" stroke-width="1.5"></path><path d="M798.4 402.54L807.02 541.5" stroke="#132e65" stroke-width="1.5"></path><path d="M798.4 402.54L969.7 365.58" stroke="#132e65" stroke-width="1.5"></path><path d="M798.4 402.54L556.21 506.17" stroke="#132e65" stroke-width="1.5"></path><path d="M807.02 541.5L807.02 541.5" stroke="#132e65" stroke-width="1.5"></path><path d="M807.02 541.5L709.02 387.3" stroke="#132e65" stroke-width="1.5"></path><path d="M807.02 541.5L952.82 651.91" stroke="#132e65" stroke-width="1.5"></path><path d="M807.02 541.5L645.32 711.15" stroke="#132e65" stroke-width="1.5"></path><path d="M980.11 109.95L980.11 109.95" stroke="#132e65" stroke-width="1.5"></path><path d="M980.11 109.95L996.14 219.33" stroke="#132e65" stroke-width="1.5"></path><path d="M980.11 109.95L1145.94 91.2" stroke="#132e65" stroke-width="1.5"></path><path d="M980.11 109.95L969.7 365.58" stroke="#132e65" stroke-width="1.5"></path><path d="M980.11 109.95L1147.85 -109.18" stroke="#132e65" stroke-width="1.5"></path><path d="M980.11 109.95L1274.6 37.87" stroke="#132e65" stroke-width="1.5"></path><path d="M996.14 219.33L996.14 219.33" stroke="#132e65" stroke-width="1.5"></path><path d="M996.14 219.33L969.7 365.58" stroke="#132e65" stroke-width="1.5"></path><path d="M996.14 219.33L1145.94 91.2" stroke="#132e65" stroke-width="1.5"></path><path d="M996.14 219.33L1147.33 382.13" stroke="#132e65" stroke-width="1.5"></path><path d="M996.14 219.33L798.4 402.54" stroke="#132e65" stroke-width="1.5"></path><path d="M969.7 365.58L969.7 365.58" stroke="#132e65" stroke-width="1.5"></path><path d="M969.7 365.58L1147.33 382.13" stroke="#132e65" stroke-width="1.5"></path><path d="M952.82 651.91L952.82 651.91" stroke="#132e65" stroke-width="1.5"></path><path d="M952.82 651.91L1113.25 675.97" stroke="#132e65" stroke-width="1.5"></path><path d="M952.82 651.91L1122.19 514.57" stroke="#132e65" stroke-width="1.5"></path><path d="M952.82 651.91L969.7 365.58" stroke="#132e65" stroke-width="1.5"></path><path d="M1147.85 -109.18L1147.85 -109.18" stroke="#132e65" stroke-width="1.5"></path><path d="M1147.85 -109.18L1240.75 -99.25" stroke="#132e65" stroke-width="1.5"></path><path d="M1147.85 -109.18L1274.6 37.87" stroke="#132e65" stroke-width="1.5"></path><path d="M1145.94 91.2L1145.94 91.2" stroke="#132e65" stroke-width="1.5"></path><path d="M1145.94 91.2L1274.6 37.87" stroke="#132e65" stroke-width="1.5"></path><path d="M1145.94 91.2L1147.85 -109.18" stroke="#132e65" stroke-width="1.5"></path><path d="M1145.94 91.2L1240.75 -99.25" stroke="#132e65" stroke-width="1.5"></path><path d="M1147.33 382.13L1147.33 382.13" stroke="#132e65" stroke-width="1.5"></path><path d="M1147.33 382.13L1279.01 389.63" stroke="#132e65" stroke-width="1.5"></path><path d="M1147.33 382.13L1122.19 514.57" stroke="#132e65" stroke-width="1.5"></path><path d="M1147.33 382.13L1288.8 258.15" stroke="#132e65" stroke-width="1.5"></path><path d="M1122.19 514.57L1122.19 514.57" stroke="#132e65" stroke-width="1.5"></path><path d="M1122.19 514.57L1239.19 556.68" stroke="#132e65" stroke-width="1.5"></path><path d="M1122.19 514.57L1113.25 675.97" stroke="#132e65" stroke-width="1.5"></path><path d="M1122.19 514.57L1278.14 638.28" stroke="#132e65" stroke-width="1.5"></path><path d="M1122.19 514.57L1279.01 389.63" stroke="#132e65" stroke-width="1.5"></path><path d="M1122.19 514.57L969.7 365.58" stroke="#132e65" stroke-width="1.5"></path><path d="M1113.25 675.97L1113.25 675.97" stroke="#132e65" stroke-width="1.5"></path><path d="M1113.25 675.97L1278.14 638.28" stroke="#132e65" stroke-width="1.5"></path><path d="M1113.25 675.97L1239.19 556.68" stroke="#132e65" stroke-width="1.5"></path><path d="M1113.25 675.97L1147.33 382.13" stroke="#132e65" stroke-width="1.5"></path><path d="M1113.25 675.97L1279.01 389.63" stroke="#132e65" stroke-width="1.5"></path><path d="M1240.75 -99.25L1240.75 -99.25" stroke="#132e65" stroke-width="1.5"></path><path d="M1240.75 -99.25L1274.6 37.87" stroke="#132e65" stroke-width="1.5"></path><path d="M1240.75 -99.25L1404.9 -39.94" stroke="#132e65" stroke-width="1.5"></path><path d="M1240.75 -99.25L1398.56 103.02" stroke="#132e65" stroke-width="1.5"></path><path d="M1240.75 -99.25L1564.09 -84.55" stroke="#132e65" stroke-width="1.5"></path><path d="M1274.6 37.87L1274.6 37.87" stroke="#132e65" stroke-width="1.5"></path><path d="M1274.6 37.87L1398.56 103.02" stroke="#132e65" stroke-width="1.5"></path><path d="M1288.8 258.15L1288.8 258.15" stroke="#132e65" stroke-width="1.5"></path><path d="M1288.8 258.15L1279.01 389.63" stroke="#132e65" stroke-width="1.5"></path><path d="M1288.8 258.15L1421.66 248.02" stroke="#132e65" stroke-width="1.5"></path><path d="M1288.8 258.15L1419.21 368.94" stroke="#132e65" stroke-width="1.5"></path><path d="M1288.8 258.15L1398.56 103.02" stroke="#132e65" stroke-width="1.5"></path><path d="M1288.8 258.15L1145.94 91.2" stroke="#132e65" stroke-width="1.5"></path><path d="M1279.01 389.63L1279.01 389.63" stroke="#132e65" stroke-width="1.5"></path><path d="M1279.01 389.63L1419.21 368.94" stroke="#132e65" stroke-width="1.5"></path><path d="M1279.01 389.63L1405.16 491.38" stroke="#132e65" stroke-width="1.5"></path><path d="M1279.01 389.63L1239.19 556.68" stroke="#132e65" stroke-width="1.5"></path><path d="M1239.19 556.68L1239.19 556.68" stroke="#132e65" stroke-width="1.5"></path><path d="M1239.19 556.68L1278.14 638.28" stroke="#132e65" stroke-width="1.5"></path><path d="M1278.14 638.28L1278.14 638.28" stroke="#132e65" stroke-width="1.5"></path><path d="M1278.14 638.28L1454.54 640.46" stroke="#132e65" stroke-width="1.5"></path><path d="M1278.14 638.28L1405.16 491.38" stroke="#132e65" stroke-width="1.5"></path><path d="M1404.9 -39.94L1404.9 -39.94" stroke="#132e65" stroke-width="1.5"></path><path d="M1404.9 -39.94L1398.56 103.02" stroke="#132e65" stroke-width="1.5"></path><path d="M1404.9 -39.94L1274.6 37.87" stroke="#132e65" stroke-width="1.5"></path><path d="M1404.9 -39.94L1564.09 -84.55" stroke="#132e65" stroke-width="1.5"></path><path d="M1404.9 -39.94L1576.8 70.38" stroke="#132e65" stroke-width="1.5"></path><path d="M1404.9 -39.94L1147.85 -109.18" stroke="#132e65" stroke-width="1.5"></path><path d="M1398.56 103.02L1398.56 103.02" stroke="#132e65" stroke-width="1.5"></path><path d="M1398.56 103.02L1421.66 248.02" stroke="#132e65" stroke-width="1.5"></path><path d="M1421.66 248.02L1421.66 248.02" stroke="#132e65" stroke-width="1.5"></path><path d="M1421.66 248.02L1419.21 368.94" stroke="#132e65" stroke-width="1.5"></path><path d="M1421.66 248.02L1551.28 215.11" stroke="#132e65" stroke-width="1.5"></path><path d="M1421.66 248.02L1553.62 358.5" stroke="#132e65" stroke-width="1.5"></path><path d="M1419.21 368.94L1419.21 368.94" stroke="#132e65" stroke-width="1.5"></path><path d="M1419.21 368.94L1405.16 491.38" stroke="#132e65" stroke-width="1.5"></path><path d="M1419.21 368.94L1553.62 358.5" stroke="#132e65" stroke-width="1.5"></path><path d="M1405.16 491.38L1405.16 491.38" stroke="#132e65" stroke-width="1.5"></path><path d="M1405.16 491.38L1454.54 640.46" stroke="#132e65" stroke-width="1.5"></path><path d="M1454.54 640.46L1454.54 640.46" stroke="#132e65" stroke-width="1.5"></path><path d="M1454.54 640.46L1595.14 552.93" stroke="#132e65" stroke-width="1.5"></path><path d="M1454.54 640.46L1239.19 556.68" stroke="#132e65" stroke-width="1.5"></path><path d="M1454.54 640.46L1419.21 368.94" stroke="#132e65" stroke-width="1.5"></path><path d="M1454.54 640.46L1553.62 358.5" stroke="#132e65" stroke-width="1.5"></path><path d="M1564.09 -84.55L1564.09 -84.55" stroke="#132e65" stroke-width="1.5"></path><path d="M1564.09 -84.55L1576.8 70.38" stroke="#132e65" stroke-width="1.5"></path><path d="M1576.8 70.38L1576.8 70.38" stroke="#132e65" stroke-width="1.5"></path><path d="M1576.8 70.38L1551.28 215.11" stroke="#132e65" stroke-width="1.5"></path><path d="M1576.8 70.38L1398.56 103.02" stroke="#132e65" stroke-width="1.5"></path><path d="M1551.28 215.11L1551.28 215.11" stroke="#132e65" stroke-width="1.5"></path><path d="M1551.28 215.11L1553.62 358.5" stroke="#132e65" stroke-width="1.5"></path><path d="M1551.28 215.11L1398.56 103.02" stroke="#132e65" stroke-width="1.5"></path><path d="M1553.62 358.5L1553.62 358.5" stroke="#132e65" stroke-width="1.5"></path><path d="M1595.14 552.93L1595.14 552.93" stroke="#132e65" stroke-width="1.5"></path><path d="M1595.14 552.93L1553.62 358.5" stroke="#132e65" stroke-width="1.5"></path><path d="M1595.14 552.93L1405.16 491.38" stroke="#132e65" stroke-width="1.5"></path><path d="M1595.14 552.93L1419.21 368.94" stroke="#132e65" stroke-width="1.5"></path><path d="M1595.14 552.93L1278.14 638.28" stroke="#132e65" stroke-width="1.5"></path><path d="M1595.14 552.93L1551.28 215.11" stroke="#132e65" stroke-width="1.5"></path><circle r="5" cx="-74.91" cy="340.25" fill="#132e65"></circle><circle r="5" cx="-99.87" cy="512.24" fill="#132e65"></circle><circle r="5" cx="-106.08" cy="667" fill="#132e65"></circle><circle r="5" cx="65.87" cy="373.9" fill="#132e65"></circle><circle r="5" cx="102.11" cy="553.31" fill="#132e65"></circle><circle r="5" cx="69.79" cy="679.03" fill="#132e65"></circle><circle r="5" cx="248.62" cy="491.87" fill="#132e65"></circle><circle r="5" cx="193.24" cy="659.28" fill="#132e65"></circle><circle r="5" cx="375.21" cy="360.27" fill="#132e65"></circle><circle r="5" cx="364.16" cy="504.61" fill="#132e65"></circle><circle r="5" cx="364.22" cy="681.64" fill="#132e65"></circle><circle r="5" cx="510.85" cy="352.4" fill="#132e65"></circle><circle r="5" cx="556.21" cy="506.17" fill="#132e65"></circle><circle r="5" cx="556.41" cy="656.6" fill="#132e65"></circle><circle r="5" cx="709.02" cy="387.3" fill="#132e65"></circle><circle r="5" cx="690.4" cy="494.64" fill="#132e65"></circle><circle r="5" cx="645.32" cy="711.15" fill="#132e65"></circle><circle r="5" cx="799.8" cy="215.28" fill="#132e65"></circle><circle r="5" cx="798.4" cy="402.54" fill="#132e65"></circle><circle r="5" cx="807.02" cy="541.5" fill="#132e65"></circle><circle r="5" cx="980.11" cy="109.95" fill="#132e65"></circle><circle r="5" cx="996.14" cy="219.33" fill="#132e65"></circle><circle r="5" cx="969.7" cy="365.58" fill="#132e65"></circle><circle r="5" cx="952.82" cy="651.91" fill="#132e65"></circle><circle r="5" cx="1147.85" cy="-109.18" fill="#132e65"></circle><circle r="5" cx="1145.94" cy="91.2" fill="#132e65"></circle><circle r="5" cx="1147.33" cy="382.13" fill="#132e65"></circle><circle r="5" cx="1122.19" cy="514.57" fill="#132e65"></circle><circle r="5" cx="1113.25" cy="675.97" fill="#132e65"></circle><circle r="5" cx="1240.75" cy="-99.25" fill="#132e65"></circle><circle r="5" cx="1274.6" cy="37.87" fill="#132e65"></circle><circle r="5" cx="1288.8" cy="258.15" fill="#132e65"></circle><circle r="5" cx="1279.01" cy="389.63" fill="#132e65"></circle><circle r="5" cx="1239.19" cy="556.68" fill="#132e65"></circle><circle r="5" cx="1278.14" cy="638.28" fill="#132e65"></circle><circle r="5" cx="1404.9" cy="-39.94" fill="#132e65"></circle><circle r="5" cx="1398.56" cy="103.02" fill="#132e65"></circle><circle r="5" cx="1421.66" cy="248.02" fill="#132e65"></circle><circle r="5" cx="1419.21" cy="368.94" fill="#132e65"></circle><circle r="5" cx="1405.16" cy="491.38" fill="#132e65"></circle><circle r="5" cx="1454.54" cy="640.46" fill="#132e65"></circle><circle r="5" cx="1564.09" cy="-84.55" fill="#132e65"></circle><circle r="5" cx="1576.8" cy="70.38" fill="#132e65"></circle><circle r="5" cx="1551.28" cy="215.11" fill="#132e65"></circle><circle r="5" cx="1553.62" cy="358.5" fill="#132e65"></circle><circle r="5" cx="1595.14" cy="552.93" fill="#132e65"></circle><path d="M56.23 669.35L56.23 669.35" stroke="hsl(228.5, 77.2%, 51.5%)" stroke-width="1.5"></path><path d="M56.23 669.35L-43.5 640.92" stroke="hsl(228.5, 77.2%, 51.5%)" stroke-width="1.5"></path><path d="M56.23 669.35L187.65 683.16" stroke="hsl(228.5, 77.2%, 51.5%)" stroke-width="1.5"></path><path d="M1278.44 -72.88L1278.44 -72.88" stroke="hsl(228.5, 77.2%, 51.5%)" stroke-width="1.5"></path><path d="M1278.44 -72.88L1246.81 38.16" stroke="hsl(228.5, 77.2%, 51.5%)" stroke-width="1.5"></path><path d="M1278.44 -72.88L1153.75 -109.86" stroke="hsl(228.5, 77.2%, 51.5%)" stroke-width="1.5"></path><path d="M1278.44 -72.88L1435.39 -100.06" stroke="hsl(228.5, 77.2%, 51.5%)" stroke-width="1.5"></path><path d="M1278.44 -72.88L1397.3 73.08" stroke="hsl(228.5, 77.2%, 51.5%)" stroke-width="1.5"></path><path d="M1253.2 664.31L1253.2 664.31" stroke="hsl(228.5, 77.2%, 51.5%)" stroke-width="1.5"></path><path d="M1253.2 664.31L1156.35 700.1" stroke="hsl(228.5, 77.2%, 51.5%)" stroke-width="1.5"></path><path d="M1253.2 664.31L1307 501.97" stroke="hsl(228.5, 77.2%, 51.5%)" stroke-width="1.5"></path><path d="M1394.02 375.91L1394.02 375.91" stroke="hsl(228.5, 77.2%, 51.5%)" stroke-width="1.5"></path><path d="M1394.02 375.91L1260.46 402.21" stroke="hsl(228.5, 77.2%, 51.5%)" stroke-width="1.5"></path><path d="M1394.02 375.91L1307 501.97" stroke="hsl(228.5, 77.2%, 51.5%)" stroke-width="1.5"></path><path d="M1394.02 375.91L1572.68 365.17" stroke="hsl(228.5, 77.2%, 51.5%)" stroke-width="1.5"></path><path d="M1565.65 64.12L1565.65 64.12" stroke="hsl(228.5, 77.2%, 51.5%)" stroke-width="1.5"></path><path d="M1565.65 64.12L1542.99 -92.5" stroke="hsl(228.5, 77.2%, 51.5%)" stroke-width="1.5"></path><path d="M1565.65 64.12L1397.3 73.08" stroke="hsl(228.5, 77.2%, 51.5%)" stroke-width="1.5"></path><path d="M1565.65 64.12L1560.23 235.34" stroke="hsl(228.5, 77.2%, 51.5%)" stroke-width="1.5"></path><path d="M1565.65 64.12L1451.38 200.54" stroke="hsl(228.5, 77.2%, 51.5%)" stroke-width="1.5"></path><path d="M1565.65 64.12L1435.39 -100.06" stroke="hsl(228.5, 77.2%, 51.5%)" stroke-width="1.5"></path><path d="M1583.06 497.75L1583.06 497.75" stroke="hsl(228.5, 77.2%, 51.5%)" stroke-width="1.5"></path><path d="M1583.06 497.75L1572.68 365.17" stroke="hsl(228.5, 77.2%, 51.5%)" stroke-width="1.5"></path><path d="M1583.06 497.75L1547.99 671.37" stroke="hsl(228.5, 77.2%, 51.5%)" stroke-width="1.5"></path><path d="M1583.06 497.75L1393.55 556.45" stroke="hsl(228.5, 77.2%, 51.5%)" stroke-width="1.5"></path><path d="M-43.5 640.92L-43.5 640.92" stroke="hsl(228.5, 77.2%, 51.5%)" stroke-width="1.5"></path><path d="M-43.5 640.92L94.34 492.43" stroke="hsl(228.5, 77.2%, 51.5%)" stroke-width="1.5"></path><path d="M-43.5 640.92L187.65 683.16" stroke="hsl(228.5, 77.2%, 51.5%)" stroke-width="1.5"></path><path d="M-43.5 640.92L259.92 549.1" stroke="hsl(228.5, 77.2%, 51.5%)" stroke-width="1.5"></path><path d="M-43.5 640.92L359.76 697.26" stroke="hsl(228.5, 77.2%, 51.5%)" stroke-width="1.5"></path><path d="M94.34 492.43L94.34 492.43" stroke="hsl(228.5, 77.2%, 51.5%)" stroke-width="1.5"></path><path d="M94.34 492.43L259.92 549.1" stroke="hsl(228.5, 77.2%, 51.5%)" stroke-width="1.5"></path><path d="M94.34 492.43L56.23 669.35" stroke="hsl(228.5, 77.2%, 51.5%)" stroke-width="1.5"></path><path d="M94.34 492.43L187.65 683.16" stroke="hsl(228.5, 77.2%, 51.5%)" stroke-width="1.5"></path><path d="M94.34 492.43L368.27 531.01" stroke="hsl(228.5, 77.2%, 51.5%)" stroke-width="1.5"></path><path d="M94.34 492.43L359.76 697.26" stroke="hsl(228.5, 77.2%, 51.5%)" stroke-width="1.5"></path><path d="M259.92 549.1L259.92 549.1" stroke="hsl(228.5, 77.2%, 51.5%)" stroke-width="1.5"></path><path d="M259.92 549.1L368.27 531.01" stroke="hsl(228.5, 77.2%, 51.5%)" stroke-width="1.5"></path><path d="M259.92 549.1L187.65 683.16" stroke="hsl(228.5, 77.2%, 51.5%)" stroke-width="1.5"></path><path d="M259.92 549.1L359.76 697.26" stroke="hsl(228.5, 77.2%, 51.5%)" stroke-width="1.5"></path><path d="M187.65 683.16L187.65 683.16" stroke="hsl(228.5, 77.2%, 51.5%)" stroke-width="1.5"></path><path d="M368.27 531.01L368.27 531.01" stroke="hsl(228.5, 77.2%, 51.5%)" stroke-width="1.5"></path><path d="M368.27 531.01L530.37 519.74" stroke="hsl(228.5, 77.2%, 51.5%)" stroke-width="1.5"></path><path d="M368.27 531.01L359.76 697.26" stroke="hsl(228.5, 77.2%, 51.5%)" stroke-width="1.5"></path><path d="M359.76 697.26L359.76 697.26" stroke="hsl(228.5, 77.2%, 51.5%)" stroke-width="1.5"></path><path d="M359.76 697.26L187.65 683.16" stroke="hsl(228.5, 77.2%, 51.5%)" stroke-width="1.5"></path><path d="M359.76 697.26L556.07 665.12" stroke="hsl(228.5, 77.2%, 51.5%)" stroke-width="1.5"></path><path d="M530.37 519.74L530.37 519.74" stroke="hsl(228.5, 77.2%, 51.5%)" stroke-width="1.5"></path><path d="M530.37 519.74L556.07 665.12" stroke="hsl(228.5, 77.2%, 51.5%)" stroke-width="1.5"></path><path d="M530.37 519.74L695.61 522.39" stroke="hsl(228.5, 77.2%, 51.5%)" stroke-width="1.5"></path><path d="M530.37 519.74L638.66 662.4" stroke="hsl(228.5, 77.2%, 51.5%)" stroke-width="1.5"></path><path d="M530.37 519.74L359.76 697.26" stroke="hsl(228.5, 77.2%, 51.5%)" stroke-width="1.5"></path><path d="M530.37 519.74L789.56 500.71" stroke="hsl(228.5, 77.2%, 51.5%)" stroke-width="1.5"></path><path d="M556.07 665.12L556.07 665.12" stroke="hsl(228.5, 77.2%, 51.5%)" stroke-width="1.5"></path><path d="M556.07 665.12L638.66 662.4" stroke="hsl(228.5, 77.2%, 51.5%)" stroke-width="1.5"></path><path d="M695.61 522.39L695.61 522.39" stroke="hsl(228.5, 77.2%, 51.5%)" stroke-width="1.5"></path><path d="M695.61 522.39L789.56 500.71" stroke="hsl(228.5, 77.2%, 51.5%)" stroke-width="1.5"></path><path d="M638.66 662.4L638.66 662.4" stroke="hsl(228.5, 77.2%, 51.5%)" stroke-width="1.5"></path><path d="M638.66 662.4L695.61 522.39" stroke="hsl(228.5, 77.2%, 51.5%)" stroke-width="1.5"></path><path d="M638.66 662.4L797.44 651.26" stroke="hsl(228.5, 77.2%, 51.5%)" stroke-width="1.5"></path><path d="M638.66 662.4L789.56 500.71" stroke="hsl(228.5, 77.2%, 51.5%)" stroke-width="1.5"></path><path d="M805.81 399.53L805.81 399.53" stroke="hsl(228.5, 77.2%, 51.5%)" stroke-width="1.5"></path><path d="M805.81 399.53L789.56 500.71" stroke="hsl(228.5, 77.2%, 51.5%)" stroke-width="1.5"></path><path d="M805.81 399.53L695.61 522.39" stroke="hsl(228.5, 77.2%, 51.5%)" stroke-width="1.5"></path><path d="M805.81 399.53L993.26 547.91" stroke="hsl(228.5, 77.2%, 51.5%)" stroke-width="1.5"></path><path d="M805.81 399.53L797.44 651.26" stroke="hsl(228.5, 77.2%, 51.5%)" stroke-width="1.5"></path><path d="M805.81 399.53L530.37 519.74" stroke="hsl(228.5, 77.2%, 51.5%)" stroke-width="1.5"></path><path d="M789.56 500.71L789.56 500.71" stroke="hsl(228.5, 77.2%, 51.5%)" stroke-width="1.5"></path><path d="M789.56 500.71L797.44 651.26" stroke="hsl(228.5, 77.2%, 51.5%)" stroke-width="1.5"></path><path d="M797.44 651.26L797.44 651.26" stroke="hsl(228.5, 77.2%, 51.5%)" stroke-width="1.5"></path><path d="M797.44 651.26L958.16 663.24" stroke="hsl(228.5, 77.2%, 51.5%)" stroke-width="1.5"></path><path d="M797.44 651.26L695.61 522.39" stroke="hsl(228.5, 77.2%, 51.5%)" stroke-width="1.5"></path><path d="M797.44 651.26L993.26 547.91" stroke="hsl(228.5, 77.2%, 51.5%)" stroke-width="1.5"></path><path d="M993.26 547.91L993.26 547.91" stroke="hsl(228.5, 77.2%, 51.5%)" stroke-width="1.5"></path><path d="M993.26 547.91L958.16 663.24" stroke="hsl(228.5, 77.2%, 51.5%)" stroke-width="1.5"></path><path d="M993.26 547.91L1160.28 518.49" stroke="hsl(228.5, 77.2%, 51.5%)" stroke-width="1.5"></path><path d="M993.26 547.91L789.56 500.71" stroke="hsl(228.5, 77.2%, 51.5%)" stroke-width="1.5"></path><path d="M993.26 547.91L1156.35 700.1" stroke="hsl(228.5, 77.2%, 51.5%)" stroke-width="1.5"></path><path d="M958.16 663.24L958.16 663.24" stroke="hsl(228.5, 77.2%, 51.5%)" stroke-width="1.5"></path><path d="M1153.75 -109.86L1153.75 -109.86" stroke="hsl(228.5, 77.2%, 51.5%)" stroke-width="1.5"></path><path d="M1153.75 -109.86L1246.81 38.16" stroke="hsl(228.5, 77.2%, 51.5%)" stroke-width="1.5"></path><path d="M1153.75 -109.86L1435.39 -100.06" stroke="hsl(228.5, 77.2%, 51.5%)" stroke-width="1.5"></path><path d="M1111.59 200.43L1111.59 200.43" stroke="hsl(228.5, 77.2%, 51.5%)" stroke-width="1.5"></path><path d="M1111.59 200.43L1253.18 253.27" stroke="hsl(228.5, 77.2%, 51.5%)" stroke-width="1.5"></path><path d="M1111.59 200.43L1246.81 38.16" stroke="hsl(228.5, 77.2%, 51.5%)" stroke-width="1.5"></path><path d="M1160.28 518.49L1160.28 518.49" stroke="hsl(228.5, 77.2%, 51.5%)" stroke-width="1.5"></path><path d="M1160.28 518.49L1307 501.97" stroke="hsl(228.5, 77.2%, 51.5%)" stroke-width="1.5"></path><path d="M1160.28 518.49L1260.46 402.21" stroke="hsl(228.5, 77.2%, 51.5%)" stroke-width="1.5"></path><path d="M1160.28 518.49L1253.2 664.31" stroke="hsl(228.5, 77.2%, 51.5%)" stroke-width="1.5"></path><path d="M1156.35 700.1L1156.35 700.1" stroke="hsl(228.5, 77.2%, 51.5%)" stroke-width="1.5"></path><path d="M1156.35 700.1L1160.28 518.49" stroke="hsl(228.5, 77.2%, 51.5%)" stroke-width="1.5"></path><path d="M1156.35 700.1L958.16 663.24" stroke="hsl(228.5, 77.2%, 51.5%)" stroke-width="1.5"></path><path d="M1246.81 38.16L1246.81 38.16" stroke="hsl(228.5, 77.2%, 51.5%)" stroke-width="1.5"></path><path d="M1246.81 38.16L1397.3 73.08" stroke="hsl(228.5, 77.2%, 51.5%)" stroke-width="1.5"></path><path d="M1253.18 253.27L1253.18 253.27" stroke="hsl(228.5, 77.2%, 51.5%)" stroke-width="1.5"></path><path d="M1253.18 253.27L1260.46 402.21" stroke="hsl(228.5, 77.2%, 51.5%)" stroke-width="1.5"></path><path d="M1260.46 402.21L1260.46 402.21" stroke="hsl(228.5, 77.2%, 51.5%)" stroke-width="1.5"></path><path d="M1260.46 402.21L1307 501.97" stroke="hsl(228.5, 77.2%, 51.5%)" stroke-width="1.5"></path><path d="M1307 501.97L1307 501.97" stroke="hsl(228.5, 77.2%, 51.5%)" stroke-width="1.5"></path><path d="M1307 501.97L1393.55 556.45" stroke="hsl(228.5, 77.2%, 51.5%)" stroke-width="1.5"></path><path d="M1307 501.97L1432.93 649.14" stroke="hsl(228.5, 77.2%, 51.5%)" stroke-width="1.5"></path><path d="M1435.39 -100.06L1435.39 -100.06" stroke="hsl(228.5, 77.2%, 51.5%)" stroke-width="1.5"></path><path d="M1435.39 -100.06L1542.99 -92.5" stroke="hsl(228.5, 77.2%, 51.5%)" stroke-width="1.5"></path><path d="M1435.39 -100.06L1397.3 73.08" stroke="hsl(228.5, 77.2%, 51.5%)" stroke-width="1.5"></path><path d="M1435.39 -100.06L1246.81 38.16" stroke="hsl(228.5, 77.2%, 51.5%)" stroke-width="1.5"></path><path d="M1397.3 73.08L1397.3 73.08" stroke="hsl(228.5, 77.2%, 51.5%)" stroke-width="1.5"></path><path d="M1397.3 73.08L1451.38 200.54" stroke="hsl(228.5, 77.2%, 51.5%)" stroke-width="1.5"></path><path d="M1397.3 73.08L1542.99 -92.5" stroke="hsl(228.5, 77.2%, 51.5%)" stroke-width="1.5"></path><path d="M1451.38 200.54L1451.38 200.54" stroke="hsl(228.5, 77.2%, 51.5%)" stroke-width="1.5"></path><path d="M1451.38 200.54L1560.23 235.34" stroke="hsl(228.5, 77.2%, 51.5%)" stroke-width="1.5"></path><path d="M1393.55 556.45L1393.55 556.45" stroke="hsl(228.5, 77.2%, 51.5%)" stroke-width="1.5"></path><path d="M1393.55 556.45L1432.93 649.14" stroke="hsl(228.5, 77.2%, 51.5%)" stroke-width="1.5"></path><path d="M1393.55 556.45L1253.2 664.31" stroke="hsl(228.5, 77.2%, 51.5%)" stroke-width="1.5"></path><path d="M1393.55 556.45L1394.02 375.91" stroke="hsl(228.5, 77.2%, 51.5%)" stroke-width="1.5"></path><path d="M1393.55 556.45L1547.99 671.37" stroke="hsl(228.5, 77.2%, 51.5%)" stroke-width="1.5"></path><path d="M1432.93 649.14L1432.93 649.14" stroke="hsl(228.5, 77.2%, 51.5%)" stroke-width="1.5"></path><path d="M1432.93 649.14L1547.99 671.37" stroke="hsl(228.5, 77.2%, 51.5%)" stroke-width="1.5"></path><path d="M1432.93 649.14L1253.2 664.31" stroke="hsl(228.5, 77.2%, 51.5%)" stroke-width="1.5"></path><path d="M1542.99 -92.5L1542.99 -92.5" stroke="hsl(228.5, 77.2%, 51.5%)" stroke-width="1.5"></path><path d="M1560.23 235.34L1560.23 235.34" stroke="hsl(228.5, 77.2%, 51.5%)" stroke-width="1.5"></path><path d="M1560.23 235.34L1572.68 365.17" stroke="hsl(228.5, 77.2%, 51.5%)" stroke-width="1.5"></path><path d="M1560.23 235.34L1394.02 375.91" stroke="hsl(228.5, 77.2%, 51.5%)" stroke-width="1.5"></path><path d="M1572.68 365.17L1572.68 365.17" stroke="hsl(228.5, 77.2%, 51.5%)" stroke-width="1.5"></path><path d="M1572.68 365.17L1451.38 200.54" stroke="hsl(228.5, 77.2%, 51.5%)" stroke-width="1.5"></path><path d="M1547.99 671.37L1547.99 671.37" stroke="hsl(228.5, 77.2%, 51.5%)" stroke-width="1.5"></path><path d="M1547.99 671.37L1307 501.97" stroke="hsl(228.5, 77.2%, 51.5%)" stroke-width="1.5"></path><path d="M1547.99 671.37L1253.2 664.31" stroke="hsl(228.5, 77.2%, 51.5%)" stroke-width="1.5"></path><circle r="25" cx="56.23" cy="669.35" fill="url(#SvgjsRadialGradient1022)"></circle><circle r="25" cx="1278.44" cy="-72.88" fill="url(#SvgjsRadialGradient1022)"></circle><circle r="25" cx="1253.2" cy="664.31" fill="url(#SvgjsRadialGradient1022)"></circle><circle r="25" cx="1394.02" cy="375.91" fill="url(#SvgjsRadialGradient1022)"></circle><circle r="25" cx="1565.65" cy="64.12" fill="url(#SvgjsRadialGradient1022)"></circle><circle r="25" cx="1583.06" cy="497.75" fill="url(#SvgjsRadialGradient1022)"></circle><circle r="5" cx="-43.5" cy="640.92" fill="#8b9ad9"></circle><circle r="5" cx="94.34" cy="492.43" fill="#8b9ad9"></circle><circle r="5" cx="259.92" cy="549.1" fill="#8b9ad9"></circle><circle r="5" cx="187.65" cy="683.16" fill="#8b9ad9"></circle><circle r="5" cx="368.27" cy="531.01" fill="#8b9ad9"></circle><circle r="5" cx="359.76" cy="697.26" fill="#8b9ad9"></circle><circle r="5" cx="530.37" cy="519.74" fill="#8b9ad9"></circle><circle r="5" cx="556.07" cy="665.12" fill="#8b9ad9"></circle><circle r="5" cx="695.61" cy="522.39" fill="#8b9ad9"></circle><circle r="5" cx="638.66" cy="662.4" fill="#8b9ad9"></circle><circle r="5" cx="805.81" cy="399.53" fill="#8b9ad9"></circle><circle r="5" cx="789.56" cy="500.71" fill="#8b9ad9"></circle><circle r="5" cx="797.44" cy="651.26" fill="#8b9ad9"></circle><circle r="5" cx="993.26" cy="547.91" fill="#8b9ad9"></circle><circle r="5" cx="958.16" cy="663.24" fill="#8b9ad9"></circle><circle r="5" cx="1153.75" cy="-109.86" fill="#8b9ad9"></circle><circle r="5" cx="1111.59" cy="200.43" fill="#8b9ad9"></circle><circle r="5" cx="1160.28" cy="518.49" fill="#8b9ad9"></circle><circle r="5" cx="1156.35" cy="700.1" fill="#8b9ad9"></circle><circle r="5" cx="1246.81" cy="38.16" fill="#8b9ad9"></circle><circle r="5" cx="1253.18" cy="253.27" fill="#8b9ad9"></circle><circle r="5" cx="1260.46" cy="402.21" fill="#8b9ad9"></circle><circle r="5" cx="1307" cy="501.97" fill="#8b9ad9"></circle><circle r="5" cx="1435.39" cy="-100.06" fill="#8b9ad9"></circle><circle r="5" cx="1397.3" cy="73.08" fill="#8b9ad9"></circle><circle r="5" cx="1451.38" cy="200.54" fill="#8b9ad9"></circle><circle r="5" cx="1393.55" cy="556.45" fill="#8b9ad9"></circle><circle r="5" cx="1432.93" cy="649.14" fill="#8b9ad9"></circle><circle r="5" cx="1542.99" cy="-92.5" fill="#8b9ad9"></circle><circle r="5" cx="1560.23" cy="235.34" fill="#8b9ad9"></circle><circle r="5" cx="1572.68" cy="365.17" fill="#8b9ad9"></circle><circle r="5" cx="1547.99" cy="671.37" fill="#8b9ad9"></circle></g><defs><mask id="SvgjsMask1021"><rect width="1440" height="560" fill="#ffffff"></rect></mask><radialGradient id="SvgjsRadialGradient1022"><stop stop-color="#ffffff" offset="0.1"></stop><stop stop-color="#1735b3" offset="0.2"></stop><stop stop-color="rgba(23, 53, 179, 0)" offset="1"></stop></radialGradient></defs></svg>